<svg xmlns="http://www.w3.org/2000/svg" width="36" height="36" fill="none" viewBox="0 0 36 36">
  <path fill="#fff" fill-opacity=".01" d="M0 0h36v36H0V0Z"/>
  <path fill="#446DFF" d="M17.201 3.945a2 2 0 0 1 2.358 0l2.233 1.63a2 2 0 0 0 1.182.384l2.764-.006a2 2 0 0 1 1.907 1.386l.85 2.63a2 2 0 0 0 .73 1.006l2.24 1.62a2 2 0 0 1 .728 2.242l-.86 2.627a2 2 0 0 0 0 1.243l.86 2.627a2 2 0 0 1-.729 2.242l-2.239 1.62a2 2 0 0 0-.73 1.006l-.85 2.63a2 2 0 0 1-1.907 1.386l-2.764-.005a2 2 0 0 0-1.182.384l-2.233 1.629a2 2 0 0 1-2.358 0l-2.232-1.629a2 2 0 0 0-1.183-.384l-2.764.005a2 2 0 0 1-1.907-1.385l-.849-2.63a2 2 0 0 0-.73-1.006l-2.24-1.62a2 2 0 0 1-.728-2.243l.859-2.627a2 2 0 0 0 0-1.243l-.86-2.627a2 2 0 0 1 .73-2.242l2.238-1.62a2 2 0 0 0 .731-1.006l.85-2.63a2 2 0 0 1 1.906-1.386l2.764.006a2 2 0 0 0 1.183-.385L17.2 3.945Z"/>
  <path stroke="#fff" stroke-linecap="round" stroke-linejoin="round" stroke-width="2" d="m13.13 18.086 3.75 3.75 7.5-7.5"/>
</svg>
