<svg xmlns="http://www.w3.org/2000/svg" width="137" height="22" fill="none" viewBox="0 0 137 22">
  <path fill="#446DFF" d="M9.484 3.813v.703a82.731 82.731 0 0 0-.953 2.03c-.219.48-.328.808-.328.985 0 .302.172.453.516.453l3.078-6.75c.719-.468 1.698-.703 2.937-.703 1.25 0 2.323.344 3.22 1.031.978.771 1.468 1.823 1.468 3.157 0 1.114-.38 2.213-1.14 3.297-.761 1.073-1.756 2.005-2.985 2.796-.573-.322-1.089-.484-1.547-.484-.458 0-.688.224-.688.672.48.094.912.23 1.297.406.396.167.86.495 1.391.985l4.156 3.828c-.302 3.375-1.99 5.062-5.062 5.062-1.136 0-2.11-.291-2.922-.875-.959-.677-1.709-1.708-2.25-3.093l-1.453-3.625H8.14c-.344 0-.516.145-.516.437 0 .188.146.64.438 1.36.291.78.729 1.822 1.312 3.124v1.203c-1.094.98-2.682 1.47-4.766 1.47-1.125 0-2.088-.256-2.89-.766-.907-.552-1.36-1.339-1.36-2.36V2.031C1.432 1.052 3.063.562 5.25.562c1.135 0 2.099.24 2.89.72.896.572 1.344 1.416 1.344 2.53Zm21.047 6.406c0-1.042-.047-1.755-.14-2.14-.094-.397-.266-.595-.516-.595a.642.642 0 0 0-.422.157c.021.187.052.437.094.75.041.312.062.979.062 2v1.015c0 .709-.015 1.224-.047 1.547l-.078.828-.03.375a.642.642 0 0 0 .421.156c.25 0 .422-.192.516-.578.093-.396.14-1.114.14-2.156v-1.36ZM29.906 21.5c-1.854 0-3.557-.38-5.11-1.14-1.54-.771-2.786-1.943-3.733-3.516-.948-1.584-1.422-3.558-1.422-5.922 0-3.427 1.03-6.104 3.093-8.031C24.568 1.193 26.927.344 29.812.344c3.136 0 5.615.974 7.438 2.922C39.083 5.203 40 7.756 40 10.922c0 3.52-.98 6.208-2.938 8.062-1.78 1.677-4.166 2.516-7.156 2.516ZM49.594 9.89c.041.032.161.047.36.047a.51.51 0 0 0 .452-.234c.104-.156.157-.411.157-.765v-.563c0-.375-.047-.64-.141-.797-.083-.167-.23-.25-.438-.25-.198 0-.333.021-.406.063.01.052.016.14.016.265v2.235Zm8.062 3.563 2.703 2.766c-.187 1.625-.703 2.875-1.547 3.75-.833.875-1.99 1.312-3.468 1.312-1.115 0-2.084-.265-2.907-.797-1.052-.666-1.838-1.729-2.359-3.187l-.562-1.531c-.438-.01-.99-.068-1.657-.172a.464.464 0 0 0-.125.344c0 .28.422.447 1.266.5l.89 2.25v1.328c-1.197.843-2.734 1.265-4.609 1.265-1.343 0-2.416-.276-3.218-.828-.803-.552-1.204-1.354-1.204-2.406V3.203c0-.458.422-.9 1.266-1.328.844-.438 1.948-.786 3.313-1.047a21.038 21.038 0 0 1 4.093-.406c3.125 0 5.568.64 7.328 1.922 1.855 1.344 2.782 3.234 2.782 5.672 0 1.395-.396 2.593-1.188 3.593a6.072 6.072 0 0 1-2.969 2.063c0 .333.198.5.594.5.406 0 .932-.24 1.578-.719Zm12.032-3.562c.041.03.161.046.359.046a.511.511 0 0 0 .453-.234c.104-.156.156-.411.156-.765v-.563c0-.375-.047-.64-.14-.797-.084-.167-.23-.25-.438-.25-.198 0-.333.021-.406.063.01.052.016.14.016.265v2.235Zm8.062 3.562 2.703 2.766c-.187 1.625-.703 2.875-1.547 3.75-.833.875-1.99 1.312-3.469 1.312-1.114 0-2.083-.265-2.906-.797-1.052-.666-1.838-1.729-2.36-3.187l-.562-1.531a13.15 13.15 0 0 1-1.656-.172.465.465 0 0 0-.125.344c0 .28.422.447 1.266.5l.89 2.25v1.328c-1.197.843-2.734 1.265-4.609 1.265-1.344 0-2.417-.276-3.219-.828-.802-.552-1.203-1.354-1.203-2.406V3.203c0-.458.422-.9 1.266-1.328.843-.438 1.948-.786 3.312-1.047 1.365-.27 2.73-.406 4.094-.406 3.125 0 5.568.64 7.328 1.922 1.854 1.344 2.781 3.234 2.781 5.672 0 1.395-.395 2.593-1.187 3.593a6.073 6.073 0 0 1-2.969 2.063c0 .333.198.5.594.5.406 0 .932-.24 1.578-.719ZM88.078.843h9.016c.302.5.526 1.048.672 1.641a6.62 6.62 0 0 1 .218 1.579c0 1.052-.208 1.843-.625 2.375-.406.53-.979.796-1.718.796h-6.297c-.386 0-.578.151-.578.454v.125c0 .062.01.104.03.125h7.47c.187.322.349.729.484 1.218.125.531.188 1.005.188 1.422 0 1.24-.23 2.209-.688 2.906h-3.39c-1.584 0-2.657.063-3.22.188-.562.114-.91.213-1.046.297-.136.094-.203.213-.203.36 0 .145.072.26.218.343a8.994 8.994 0 0 1 1.704-.375c.78-.073 1.63-.11 2.546-.11h4.391c.635.896.953 1.975.953 3.235 0 .708-.088 1.385-.266 2.031-.177.646-.442 1.167-.796 1.563H85.437c-1.291 0-2.328-.313-3.109-.938-.854-.666-1.281-1.646-1.281-2.937V2.28c0-.5.573-.864 1.719-1.094C83.91.959 85.682.845 88.078.845Zm20.156 13.938a.522.522 0 0 0 .282-.078v-1.422c.708-.479 1.698-.87 2.968-1.172a16.256 16.256 0 0 1 3.735-.453c.552.563 1.01 1.406 1.375 2.531.375 1.115.573 2.126.594 3.032-.209.416-.563.864-1.063 1.343-.49.48-1.083.922-1.781 1.329-1.729 1.02-3.714 1.53-5.953 1.53-3.209 0-5.735-.931-7.579-2.796-1.906-1.885-2.859-4.495-2.859-7.828 0-3.344 1.042-5.969 3.125-7.875A9.014 9.014 0 0 1 104.281 1c1.219-.438 2.5-.656 3.844-.656 2.625 0 4.776.635 6.453 1.906 1.677 1.27 2.516 2.839 2.516 4.703 0 1.406-.433 2.448-1.297 3.125-.865.667-2.037 1-3.516 1-.812 0-1.63-.198-2.453-.594-.823-.406-1.312-.786-1.469-1.14 0-.854.016-1.526.047-2.016a.267.267 0 0 0-.109-.016h-.109a.508.508 0 0 0-.376.141c-.083.083-.161.266-.234.547-.062.281-.094 1.047-.094 2.297 0 2.99.25 4.484.75 4.484Zm23.032-5.953v10.985c-.48.416-1.12.765-1.922 1.046-.802.282-1.776.422-2.922.422-1.146 0-2.12-.255-2.922-.765-.906-.552-1.359-1.334-1.359-2.344V8.109H118.5c-.75-1.073-1.125-2.244-1.125-3.515 0-.865.135-1.615.406-2.25.281-.646.625-1.146 1.031-1.5h16.157c.302.469.552 1.036.75 1.703.198.667.297 1.328.297 1.984 0 1.23-.271 2.136-.813 2.719-.542.573-1.271.86-2.187.86h-4.578a.576.576 0 0 0-.047.234c0 .187.109.312.328.375.229.073.719.11 1.469.11h1.078Z"/>
</svg>
